HIERARCHY
ROOT Hips
{
	OFFSET -3.958830 18.904000 13.208200
	CHANNELS 6 Xposition Yposition Zposition Zrotation Yrotation Xrotation 
	JOINT LHipJoint
	{
		OFFSET 0.000000 0.000000 0.000000
		CHANNELS 3 Zrotation Yrotation Xrotation
		JOINT LeftUpLeg
		{
			OFFSET 1.800000 -1.400000 0.085000
			CHANNELS 3 Zrotation Yrotation Xrotation
			JOINT LeftLeg
			{
				OFFSET 2.215000 -6.000000 0.000000
				CHANNELS 3 Zrotation Yrotation Xrotation
				JOINT LeftFoot
				{
					OFFSET 2.500000 -6.900000 0.000000
					CHANNELS 3 Zrotation Yrotation Xrotation
					JOINT LeftToeBase
					{
						OFFSET 0.200000 -0.500000 1.950000
						CHANNELS 3 Zrotation Yrotation Xrotation
						End Site
						{
							OFFSET 0.000000 0.000000 0.000000
						}
					}
				}
			}
		}
	}
	JOINT RHipJoint
	{
		OFFSET 0.000000 0.000000 0.000000
		CHANNELS 3 Zrotation Yrotation Xrotation
		JOINT RightUpLeg
		{
			OFFSET -1.800000 -1.400000 0.085000
			CHANNELS 3 Zrotation Yrotation Xrotation
			JOINT RightLeg
			{
				OFFSET -2.215000 -6.000000 0.000000
				CHANNELS 3 Zrotation Yrotation Xrotation
				JOINT RightFoot
				{
					OFFSET -2.500000 -6.900000 0.000000
					CHANNELS 3 Zrotation Yrotation Xrotation
					JOINT RightToeBase
					{
						OFFSET -0.200000 -0.500000 1.950000
						CHANNELS 3 Zrotation Yrotation Xrotation
						End Site
						{
							OFFSET 0.000000 0.000000 0.000000
						}
					}
				}
			}
		}
	}
	JOINT LowerBack
	{
		OFFSET 0.000000 0.000000 0.000000
		CHANNELS 3 Zrotation Yrotation Xrotation
		JOINT Spine
		{
			OFFSET -0.087000 1.940000 -0.288900
			CHANNELS 3 Zrotation Yrotation Xrotation
			JOINT Spine1
			{
				OFFSET 0.000000 1.950000 0.060000
				CHANNELS 3 Zrotation Yrotation Xrotation
				JOINT Neck
				{
					OFFSET 0.000000 0.000000 0.000000
					CHANNELS 3 Zrotation Yrotation Xrotation
					JOINT Neck1
					{
						OFFSET 0.000000 1.600000 0.340000
						CHANNELS 3 Zrotation Yrotation Xrotation
						JOINT Head
						{
							OFFSET 0.000000 1.667000 -0.240000
							CHANNELS 3 Zrotation Yrotation Xrotation
							End Site
							{
								OFFSET 0.000000 0.000000 0.000000
							}
						}
					}
				}
				JOINT LeftShoulder
				{
					OFFSET 0.000000 0.000000 0.000000
					CHANNELS 3 Zrotation Yrotation Xrotation
					JOINT LeftArm
					{
						OFFSET 2.700000 1.550000 -0.730000
						CHANNELS 3 Zrotation Yrotation Xrotation
						JOINT LeftForeArm
						{
							OFFSET 5.450000 0.000000 0.000000
							CHANNELS 3 Zrotation Yrotation Xrotation
							JOINT LeftHand
							{
								OFFSET 3.450000 0.000000 0.000000
								CHANNELS 3 Zrotation Yrotation Xrotation
								JOINT LeftHandIndex1
								{
									OFFSET 0.750000 0.000000 0.000000
									CHANNELS 3 Zrotation Yrotation Xrotation
									End Site
									{
										OFFSET 0.000000 0.000000 0.000000
									}
								}
							}
						}
					}
				}
				JOINT RightShoulder
				{
					OFFSET 0.000000 0.000000 0.000000
					CHANNELS 3 Zrotation Yrotation Xrotation
					JOINT RightArm
					{
						OFFSET -2.700000 1.550000 -0.730000
						CHANNELS 3 Zrotation Yrotation Xrotation
						JOINT RightForeArm
						{
							OFFSET -5.450000 0.000000 0.000000
							CHANNELS 3 Zrotation Yrotation Xrotation
							JOINT RightHand
							{
								OFFSET -3.450000 0.000000 0.000000
								CHANNELS 3 Zrotation Yrotation Xrotation
								JOINT RightHandIndex1
								{
									OFFSET -0.750000 0.000000 0.000000
									CHANNELS 3 Zrotation Yrotation Xrotation
									End Site
									{
										OFFSET 0.000000 0.000000 0.000000
									}
								}
							}
						}
					}
				}
			}
		}
	}
}
MOTION
Frames: 12
Frame Time: 0.016667
0.458280 24.678430 -6.050580 -16.744371 19.822702 -23.430640 -19.359144 16.986482 8.718158 16.547032 -42.945339 -46.335410 10.786931 14.921442 123.217706 2.956637 13.996545 -2.158388 6.151970 7.721760 5.237220 14.599181 -0.163337 6.434950 -2.715583 25.322826 -25.686172 54.918528 -52.208746 71.317528 -6.169784 -13.902366 -0.330875 4.185000 -5.237320 -0.414180 9.358223 -29.133057 -18.093043 0.104252 -4.686967 48.501717 -4.743052 49.963130 18.864035 65.192885 54.248484 -61.273018 -51.791948 5.960565 172.264590 27.325420 -19.836930 -94.914260 -39.026960 -77.506153 65.596843 -7.095215 -72.919451 -112.907201 109.352902 46.836751 -121.995089 5.922209 49.784554 0.456811 -2.337060 3.646990 -1.201660 18.382171 51.498354 -30.242946 148.849797 -54.968775 -135.517477 167.237247 48.474813 149.302568 2.860881 -1.746150 3.436510 -0.084350 -2.665240 -0.936330 
0.877540 24.667330 -5.779140 -19.304900 19.034471 -15.246560 -20.031998 16.873586 9.030135 21.820999 -43.514324 -56.666861 14.931263 8.561547 122.814263 2.508255 14.252471 -2.308440 5.171360 6.504210 5.056920 14.302778 0.826509 6.047181 -6.906190 25.149287 -33.796141 62.190648 -51.387074 64.304529 -5.894780 -13.148325 0.150124 3.543090 -5.427680 -0.644930 10.089168 -31.188103 -19.290342 -4.996133 -21.261437 39.193494 12.142674 44.318753 29.464267 76.511836 53.959541 -34.335425 -54.176144 -4.590732 167.961631 5.087250 -28.396410 -96.187800 -67.418976 -58.706389 75.635735 0.737175 -72.275463 -51.403545 -150.058724 70.892087 65.310760 13.066511 26.295609 0.410350 -2.015860 3.227450 -1.707170 13.766408 66.333697 -17.065199 159.485111 -59.139036 -147.998555 160.912361 48.810248 139.656701 1.735333 -1.551079 2.984940 0.089700 -1.845770 -1.789750 
1.478930 24.593930 -5.358910 -23.177106 21.115088 -5.473878 -19.637734 15.912734 10.226552 25.537073 -46.191958 -67.269916 20.425750 -1.670670 121.343939 2.847098 14.619834 -2.229748 3.928410 5.112840 4.602130 14.914827 0.827859 5.956010 -14.753351 21.349729 -42.132553 77.940060 -47.952717 48.601102 -5.152309 -11.330277 0.773910 2.786050 -5.575280 -0.678290 7.241059 -28.863457 -21.537973 -29.182998 -55.828597 56.721869 13.153587 63.448743 20.480493 83.358357 47.542727 -28.303467 -56.766234 -17.565086 171.245725 -26.853090 -34.857220 -86.097470 -102.242136 -55.091389 58.304576 -55.163018 -33.128076 -84.001337 109.638371 4.204830 65.447451 -0.264070 -5.943525 -0.021750 -1.587680 2.855690 -2.049550 36.024638 74.874672 -1.741809 -171.926196 -61.398932 -171.307356 157.918843 48.975155 136.428981 0.981642 -1.868989 2.687200 -0.159350 -1.270910 -2.327330 
1.383180 24.556510 -5.169870 -24.905375 20.381577 -1.114902 -20.609209 16.963564 10.566607 32.478806 -40.289513 -77.404152 20.419436 -1.471391 120.956520 3.218020 14.979972 -2.143908 3.571860 4.646050 4.476930 14.343533 2.843673 6.277624 -13.691567 24.300152 -48.502032 75.208423 -48.267646 51.389506 -5.159339 -11.859935 0.787372 2.511980 -5.655920 -0.594200 9.477726 -34.645274 -24.057949 -21.565766 -54.044582 57.073207 13.649088 72.974996 2.085117 71.365025 40.838476 -41.984375 -62.701181 -21.905973 179.144567 -39.017410 -36.264680 -77.602740 -82.886126 -19.613423 94.907432 -72.034172 -84.550843 -122.849069 133.045737 -60.586878 68.438656 5.208622 -12.435013 -0.241400 -1.465800 2.793030 -2.056650 50.839880 60.560679 8.147945 -154.653992 -53.111997 166.749800 151.137497 46.661060 126.698141 0.724142 -2.483836 2.689870 -0.404000 -1.276520 -2.403920 
1.754490 24.520000 -4.931640 -22.577786 16.249714 5.025930 -22.632014 18.269740 10.637630 31.071471 -42.311211 -79.350190 22.019258 -5.782376 119.813952 3.548957 15.255361 -2.063229 3.077550 4.082470 4.303890 12.738187 4.617177 6.241871 -18.570471 21.900176 -51.720736 78.860941 -47.208957 47.560358 -4.924462 -11.483677 0.903310 2.200580 -5.663650 -0.505480 13.643366 -41.670666 -26.573872 -25.564841 -56.094227 57.104607 -1.616581 80.431099 -0.215032 65.379064 58.524029 -52.997995 -68.928423 -28.193808 -177.950576 -54.989140 -33.051920 -68.019780 -81.058589 -31.633764 110.704359 66.977764 -83.764376 68.659727 -155.991221 -68.688150 59.731428 13.206712 -8.503437 -0.402540 -1.284050 2.721760 -2.143800 49.453029 43.079480 44.147615 95.984138 -65.385303 -77.575051 157.060255 51.447279 118.742642 -0.216417 -1.635606 2.592760 -0.594370 -1.160100 -2.531500 
2.007370 24.497580 -4.778690 -22.394029 21.035146 7.825811 -21.262407 15.140586 11.036975 22.912736 -46.556664 -75.296361 27.526346 -16.264915 115.888743 3.895599 15.883643 -2.107040 2.834760 3.836440 4.201540 13.497290 1.534721 6.501534 -22.123983 17.670538 -52.880825 83.114085 -45.758881 42.353432 -4.634101 -10.681931 1.099638 2.058240 -5.694610 -0.483470 11.628369 -30.997293 -25.970816 -39.088774 -68.011876 64.315252 176.954635 89.374884 128.753135 57.181455 25.571356 -57.477730 -87.470681 -26.937811 -162.131112 -63.861850 -31.334980 -64.239140 -124.837311 9.628126 61.284664 -60.244951 -22.532572 -165.797451 -162.087818 -67.618821 55.346833 12.900291 -13.521347 -0.513580 -1.200300 2.688020 -2.173510 59.098819 0.428780 50.640036 119.485821 -77.310698 -101.481883 152.415919 53.351596 114.393776 -0.079279 -1.555523 2.561530 -0.712980 -1.133020 -2.579410 
1.946870 24.475820 -4.811720 -22.856134 21.754550 7.286018 -22.014162 17.019071 11.275383 27.873038 -45.822572 -79.970326 24.869022 -12.737935 117.567994 3.642295 15.602863 -2.086278 2.928870 3.926440 4.244010 13.033792 3.179012 6.372265 -21.557351 17.145398 -51.387010 85.292214 -45.435737 39.841736 -4.657796 -10.506827 1.171181 2.123630 -5.597860 -0.539810 13.015118 -38.204238 -27.011359 -33.943246 -64.692671 66.090889 173.820103 89.590302 140.234767 52.127919 37.261374 -60.743569 -81.093820 -27.335391 -162.194583 -60.181000 -31.243650 -66.716400 -106.049401 2.858948 97.349882 -64.247122 -61.938900 -164.219312 -138.633317 -64.456673 55.450154 15.943459 -11.299984 -0.397900 -1.226270 2.663440 -2.165790 56.003258 16.904614 49.805211 117.565179 -72.513681 -95.521340 155.734773 55.875022 123.570835 -0.210909 -1.453633 2.493780 -0.561590 -1.103890 -2.584020 
1.895720 24.500330 -4.902120 -23.840405 25.340324 5.218069 -20.827711 15.203923 11.163209 21.199922 -46.047916 -75.059832 29.121419 -18.875282 114.472744 3.834317 16.329335 -2.207757 2.911080 3.748070 4.431130 13.860557 1.229656 6.378822 -21.251707 17.387408 -50.542825 86.020926 -44.985982 39.274066 -4.505017 -10.408093 1.063924 2.000020 -5.600870 -0.405730 11.037944 -31.107148 -24.887197 -51.939934 -74.669078 79.019980 179.482168 87.850107 124.193749 61.850719 20.701587 -50.433740 -91.404452 -23.462985 -159.545835 -60.794710 -32.525740 -65.061160 -129.438166 -4.290544 17.948095 -63.998769 15.203423 -163.114010 169.873603 -66.694026 60.531123 8.840422 -14.794680 -0.406490 -1.191720 2.626820 -2.313100 61.122956 -5.632754 57.944406 116.009769 -74.123668 -96.929232 157.345277 56.832630 129.329499 -0.143084 -1.468384 2.519540 -0.733250 -1.144880 -2.589240 
2.094300 24.399020 -4.942820 -26.144691 41.559200 1.973642 -18.013689 8.096504 14.405879 17.902232 -53.667761 -70.824159 29.775923 -23.047237 113.569068 4.491026 16.647244 -1.807021 3.493640 3.648430 5.420680 15.217652 -8.077687 8.532373 -24.948786 11.495568 -47.005409 97.145679 -38.334329 25.588074 -4.188273 -8.834188 1.280393 1.892800 -5.729120 0.061030 4.569972 1.793595 -26.274220 122.086800 -78.594668 -146.540754 -5.738692 41.542026 -138.236782 46.449412 -39.682332 -35.078915 -118.761431 -20.909026 -153.372787 -56.869110 -20.838610 -40.583450 -72.592076 66.737117 -40.433485 117.622321 84.767038 8.992484 166.533679 -53.906538 103.862420 12.309665 0.319827 -0.536240 -1.039920 2.692950 -2.231060 -120.611184 -79.794861 -116.825851 -81.306698 -72.529897 77.613707 103.716356 10.158113 -3.377720 -1.026927 -1.341152 2.809010 -1.314010 -1.827740 -2.718380 
2.197500 24.337340 -5.197980 -36.582550 45.727153 -8.598275 -17.302610 7.434182 14.634024 9.534570 -50.845707 -61.442852 39.511631 -34.745677 105.210795 4.853686 19.049719 -2.404798 3.544680 3.552910 5.668530 15.364551 -10.555060 8.533498 -16.773363 10.925642 -42.071678 94.473043 -39.511222 25.595611 -4.098219 -8.770611 1.167149 1.883560 -5.837610 0.078870 1.246378 9.022826 -26.844596 97.250287 -71.187847 -129.781264 26.967182 53.993707 -129.262452 27.806572 -28.808091 0.679093 -129.000491 -29.230311 -171.850458 -64.967010 -21.686540 -20.355640 -169.697071 75.570351 174.497781 117.659638 41.049913 66.412335 117.828737 -11.108572 107.398620 4.575368 -2.877607 -0.605480 -0.964280 2.671030 -2.321190 -1.648925 -11.401323 71.108526 -28.555043 -42.262495 76.439268 152.962531 -65.159226 -73.987696 1.531655 -4.432900 2.831690 -1.361330 -1.827680 -2.834570 
2.216410 24.252430 -5.148860 -39.138391 50.617810 -6.357432 -15.885014 4.543139 14.179745 18.881715 -54.001131 -70.621148 31.090314 -28.554555 112.858241 3.809219 17.618289 -2.400207 2.930800 3.406420 4.761230 17.359916 -11.492655 7.920275 -19.927338 9.520213 -44.621557 99.097902 -36.146965 20.276043 -3.783746 -8.359825 1.444475 2.008810 -5.388000 -0.377820 -6.548335 15.885740 -25.526095 109.334696 -71.349076 -140.454220 19.474460 57.409554 -129.585429 20.743385 -20.513456 -2.115977 -120.793142 -29.719629 -177.058530 -58.806310 -18.819820 -26.444870 -160.398034 65.005374 -171.429670 126.331080 36.583061 52.832629 126.909729 -29.492879 124.816829 8.375561 -1.715900 -0.438430 -0.791090 2.310360 -2.430050 -3.222906 -19.657954 76.239816 -52.403921 -47.443672 65.948942 117.816980 -65.650618 -53.569647 -0.251284 -2.573974 2.298470 -0.810750 -1.220800 -2.863970 
2.248630 24.332720 -5.057280 -30.650314 40.422943 -0.891223 -19.474280 12.412664 13.590780 14.286559 -52.112736 -68.605856 34.231507 -31.110531 109.495344 4.038570 18.139175 -2.402510 3.109100 3.617930 4.816280 14.083946 -4.027032 7.165771 -21.433320 10.906477 -40.772021 99.848760 -35.358331 20.570636 -3.990732 -8.513808 1.638034 2.130560 -5.555670 -0.410770 11.582425 -17.053639 -23.424254 107.162140 -69.372577 -106.748725 31.047406 76.499519 -129.953802 37.984821 -23.884842 -13.451452 -116.187165 -35.458176 -177.935045 -62.720320 -20.947670 -34.212530 176.231411 71.082072 -171.991060 112.867195 82.757173 33.078621 147.712657 -41.757747 139.549534 8.624018 6.868679 -0.356750 -0.932980 2.472900 -2.313020 14.087059 -44.744951 71.429558 -73.146836 -25.674473 86.287164 111.147618 -35.205901 -14.974267 -1.736387 -3.103020 2.358120 -0.774940 -1.370390 -2.858040 
